# xmcd
#
# Track frame offsets:
#	150
#	11345
#	22472
#	32186
#	42870
#	52541
#	64163
#	75501
#	84084
#	93767
#	102603
#	113292
#	123028
#	133698
#	144906
#	157587
#	171752
#
# Disc length: 2503 seconds
#
# Revision: 5
# Processed by: cddbd v1.5.2PL0 Copyright (c) Steve Scherf et al.
# Submitted via: audiograbber 1.83.01
#
DISCID=bc09c511
DTITLE=Johnny Horton - Six Classic Albums Plus Bonus Singles  [CD4)
DYEAR=2015
DGENRE=Oldies
TTITLE0=The Battle Of New Orleans
TTITLE1=I'm Ready If You're Willing
TTITLE2=I Don't Like I Did
TTITLE3=I'll Do It Everytime
TTITLE4=Let's Take The Long Way Home
TTITLE5=Lover's Rock
TTITLE6=You're My Baby
TTITLE7=All Grown Up
TTITLE8=Counterfeit Love
TTITLE9=Sal's Got A Sugar Lip
TTITLE10=Take Me Like I Am
TTITLE11=They Shined Up Rudolph's Nose
TTITLE12=The Electrfied Donkey
TTITLE13=The Same Old Tale The Crow Told Me
TTITLE14=North To Alaska
TTITLE15=The Mansion You Stole
TTITLE16=Miss Marcy
EXTD=
EXTT0=
EXTT1=
EXTT2=
EXTT3=
EXTT4=
EXTT5=
EXTT6=
EXTT7=
EXTT8=
EXTT9=
EXTT10=
EXTT11=
EXTT12=
EXTT13=
EXTT14=
EXTT15=
EXTT16=
PLAYORDER=
